<svg width="24" height="27" viewBox="0 0 24 27" fill="rgba(1, 118, 126, 1)" xmlns="http://www.w3.org/2000/svg">
<path d="M18.6667 14.6667H12V21.3333H18.6667V14.6667ZM17.3333 0V2.66667H6.66667V0H4V2.66667H2.66667C2.31715 2.66684 1.97111 2.73603 1.6484 2.87027C1.32569 3.0045 1.03267 3.20115 0.786141 3.44891C0.539617 3.69667 0.344445 3.99068 0.211827 4.31406C0.0792081 4.63744 0.0117533 4.98382 0.0133333 5.33333L0 24C0 24.7072 0.280951 25.3855 0.781048 25.8856C1.28115 26.3857 1.95942 26.6667 2.66667 26.6667H21.3333C22.0399 26.6646 22.717 26.3829 23.2166 25.8833C23.7163 25.3836 23.9979 24.7066 24 24V5.33333C23.9979 4.62674 23.7163 3.94969 23.2166 3.45005C22.717 2.95041 22.0399 2.66878 21.3333 2.66667H20V0H17.3333ZM21.3333 24H2.66667V9.33333H21.3333V24Z" />
</svg>
