<svg width="18" height="15" viewBox="0 0 18 15" fill="none" xmlns="http://www.w3.org/2000/svg">
<path d="M5.661 14.2205C7.04345 14.2295 8.414 13.9755 9.69306 13.4733C10.9721 12.971 12.1342 12.2305 13.1117 11.2946C14.0893 10.3588 14.8629 9.24642 15.3876 8.022C15.9122 6.79757 16.1776 5.48556 16.1681 4.16215C16.1681 4.00551 16.1681 3.85669 16.1575 3.70475C16.8803 3.20415 17.5042 2.58434 18 1.87433C17.3262 2.16041 16.6113 2.34812 15.8793 2.4312C16.6509 1.98883 17.2282 1.29287 17.5034 0.473115C16.7787 0.886109 15.9857 1.17749 15.1585 1.33467C14.6016 0.76807 13.8653 0.392905 13.0633 0.267208C12.2614 0.14151 11.4385 0.27229 10.722 0.639315C10.0055 1.00634 9.43532 1.58915 9.09964 2.2976C8.76395 3.00605 8.68149 3.80065 8.865 4.55848C7.39708 4.48776 5.96109 4.12238 4.65022 3.48603C3.33935 2.84969 2.1829 1.9566 1.25591 0.864733C0.783693 1.64329 0.639287 2.56489 0.852108 3.44181C1.06493 4.31872 1.61896 5.08499 2.40136 5.58451C1.81494 5.56725 1.24142 5.41549 0.728999 5.14198C0.728999 5.15686 0.728999 5.17175 0.728999 5.18741C0.729268 6.00363 1.02441 6.79464 1.56438 7.42632C2.10435 8.058 2.85591 8.49147 3.69164 8.65323C3.14793 8.79503 2.57751 8.81567 2.02418 8.71354C2.26013 9.41606 2.71955 10.0304 3.33818 10.4707C3.95682 10.9109 4.70373 11.1551 5.47446 11.169C4.16623 12.1518 2.55069 12.6848 0.887727 12.6822C0.591043 12.6823 0.294615 12.6655 0 12.6321C1.68869 13.6705 3.65393 14.2216 5.661 14.2197" fill="white"/>
</svg>
